<svg width="1001" height="837" viewBox="0 0 1001 837" fill="none" xmlns="http://www.w3.org/2000/svg">
<path opacity="0.1" d="M319.99 31.27C350.77 3.84 399.1 -1.73 443.08 0.429999C581.24 7.3 705.95 73.99 813.82 149.43C852.87 176.74 891.32 206.17 916.67 243.78C968.27 320.35 952.97 426.41 881.21 489.48C856.8 510.94 827.21 527.4 796.82 541.98C742.82 567.91 684.51 588.72 623.2 594.65C579.47 598.87 535.2 595.44 491.74 589.54C370.3 573.07 251.09 536.65 151.18 474.34C107.36 447.01 66.05 413.04 47.99 368.83C29.93 324.62 41.49 268.59 86.23 242.42C104.74 231.6 126.87 226.71 148.53 222.12C180.42 215.36 212.82 208.7 241.59 194.97C271.31 180.78 306.51 153.34 300.59 121.97C294.31 88.26 289.24 58.67 319.99 31.27Z" fill="#6C63FF"/>
<path opacity="0.1" d="M393.44 788.01C475.576 788.01 542.16 776.222 542.16 761.68C542.16 747.138 475.576 735.35 393.44 735.35C311.304 735.35 244.72 747.138 244.72 761.68C244.72 776.222 311.304 788.01 393.44 788.01Z" fill="#6C63FF"/>
<path opacity="0.1" d="M792.81 773.12C834.557 773.12 868.4 765.666 868.4 756.47C868.4 747.274 834.557 739.82 792.81 739.82C751.063 739.82 717.22 747.274 717.22 756.47C717.22 765.666 751.063 773.12 792.81 773.12Z" fill="#6C63FF"/>
<path d="M412.48 469.54L406.32 467.71L406.61 472.19L420.4 477.46L417.9 470.04L412.48 469.54Z" fill="#6C63FF"/>
<path opacity="0.03" d="M412.48 469.54L406.32 467.71L406.61 472.19L420.4 477.46L417.9 470.04L412.48 469.54Z" fill="black"/>
<path d="M608.63 669.75C661.135 616.589 690.529 544.848 690.42 470.13C690.42 469.33 690.42 468.53 690.42 467.72H406.6L608.63 669.75Z" fill="#6C63FF"/>
<path opacity="0.03" d="M608.63 669.75C661.135 616.589 690.529 544.848 690.42 470.13C690.42 469.33 690.42 468.53 690.42 467.72H406.6L608.63 669.75Z" fill="black"/>
<path d="M608.63 674.22C661.135 621.059 690.529 549.318 690.42 474.6C690.42 473.79 690.42 472.99 690.42 472.19H406.6L608.63 674.22Z" fill="#6C63FF"/>
<path opacity="0.15" d="M608.63 674.22C661.135 621.059 690.529 549.318 690.42 474.6C690.42 473.79 690.42 472.99 690.42 472.19H406.6L608.63 674.22Z" fill="white"/>
<path d="M866.8 424.5L862.42 384.97C862.42 384.97 854.49 349.38 853.36 331.59C852.23 313.8 843.66 312.5 843.59 312.5C843.59 312.5 833.02 306.32 832.08 304.26C831.35 302.68 825.48 299.32 822.82 297.84L821.52 297.15C821.52 297.15 818.22 283.4 814.29 285.37L813.97 284.44C812.939 281.482 812.316 278.397 812.12 275.27C812.12 274.88 812.12 274.5 812.12 274.12C816.443 269.912 819.553 264.616 821.12 258.79C821.653 256.74 821.987 254.644 822.12 252.53C822.12 252.14 822.12 251.74 822.12 251.34C824.05 249.99 824.37 247.13 824.88 244.74C825.82 240.36 828.28 236.44 829.45 232.12C829.55 231.75 829.63 231.37 829.7 230.98C829.7 230.9 829.7 230.82 829.7 230.73C829.842 229.938 829.919 229.135 829.93 228.33C829.93 228.27 829.93 228.22 829.93 228.16C829.93 224.9 828.93 221.7 826.23 219.96C825.606 219.637 825.028 219.234 824.51 218.76C824.125 218.286 823.827 217.748 823.63 217.17L821.63 212.41C821.413 211.785 821.073 211.211 820.63 210.72C819.837 210.118 818.928 209.685 817.96 209.45C814.96 208.3 812.96 205.51 811.49 202.73C810.02 199.95 808.67 196.95 806.38 194.73C802.66 191.18 797.14 190.43 792.02 189.87C791.641 191.471 791.52 193.121 791.66 194.76C783.53 192.98 774.66 191.27 767.17 194.86C765.838 195.41 764.765 196.447 764.17 197.76V197.76C764.121 197.914 764.081 198.071 764.05 198.23V198.23C764.03 198.433 764.03 198.637 764.05 198.84C764.147 199.276 764.191 199.723 764.18 200.17C764.094 200.477 763.935 200.759 763.717 200.992C763.5 201.225 763.23 201.402 762.93 201.51C760.47 202.6 757.5 201.19 754.93 202.06C752.58 202.86 751.28 205.33 750.55 207.69C749.82 210.05 749.35 212.58 747.76 214.47C746.96 215.47 745.91 216.14 745.08 217.07C744.328 217.933 743.771 218.948 743.445 220.045C743.119 221.142 743.032 222.296 743.19 223.43C743.185 223.49 743.185 223.55 743.19 223.61C743.19 223.91 743.3 224.21 743.38 224.51C743.485 224.851 743.612 225.185 743.76 225.51C743.9 225.8 744.05 226.08 744.21 226.36C745.33 228.25 747 229.89 747.42 232.03C747.42 232.03 747.42 232.09 747.42 232.11C747.91 234.86 746.16 237.48 745.72 240.22C745.72 240.44 745.66 240.65 745.65 240.87C745.65 240.87 745.65 240.87 745.65 240.93C745.65 241.15 745.65 241.38 745.65 241.61C745.8 245.61 749.47 248.26 751.65 251.2C752.23 251.98 753.31 254.25 754.47 255.1C754.53 255.53 754.6 255.95 754.69 256.36C755.3 259.607 756.399 262.743 757.95 265.66C761.736 272.776 767.928 278.316 775.42 281.29C775.42 281.68 775.5 282.08 775.54 282.48C775.54 283.22 775.64 283.98 775.64 284.72C775.64 285.08 775.64 285.44 775.64 285.8L775.31 283.26C774.072 283.002 772.795 282.985 771.55 283.21C718.051 232.765 647.301 204.666 573.77 204.66V342.75C565.51 340.27 558.77 339.99 559.27 345.83C559.73 351.83 566.27 357.91 573.77 362.94V494.03H718.01C718.16 497.37 718.46 500.37 719.01 501.1C720.56 502.98 720.42 525.5 720.42 525.5C720.42 525.5 721.18 529.63 721.37 530.37C721.56 531.11 723.82 550.23 723.82 551.16C723.82 552.09 725.9 558.66 725.71 561.28C725.52 563.9 729.11 572.51 729.11 572.51L729.67 588.25C729.67 588.25 735.52 597.06 735.9 597.62C736.28 598.18 736.09 609.23 742.5 614.48C743.512 615.445 744.233 616.675 744.58 618.03C745.06 619.93 761.16 646.97 766.14 655.31L765.54 658.14L761.54 676.85L761.35 684.72C761.35 684.72 758.89 691.46 759.65 694.27C760.11 695.723 760.239 697.26 760.03 698.77C760.03 698.77 757.39 702.88 759.09 705.51C760.79 708.14 759.84 709.63 757.39 716.37C756.31 719.37 757.24 721.14 758.62 722.24C758.62 722.57 758.54 722.92 758.5 723.24C758.15 726.24 757.76 729.67 757.76 730.58C757.76 731.49 757.41 735.58 757.39 739.18C757.39 742.03 757.57 744.59 758.33 745.01C760.03 745.94 769.47 747.01 769.65 750.25C769.83 753.49 773.43 758.11 780.97 758.11C788.51 758.11 801.54 755.49 804.74 755.86C805.27 755.93 805.58 755.58 805.74 754.96C805.769 754.855 805.793 754.748 805.81 754.64C806.946 755.927 808.508 756.761 810.21 756.99C821.53 759.06 835.3 753.99 837.95 748.94C838.28 748.305 838.535 747.634 838.71 746.94C839.97 741.94 837.95 735.65 837.95 735.65C837.347 733.113 837.265 730.48 837.71 727.91C837.939 726.753 838.474 725.679 839.26 724.8C841.07 722.9 842.82 717.68 844 713.48C844.91 710.21 845.49 707.55 845.49 707.55C845.49 707.55 844.3 705.73 842.49 703.23C838.86 698.14 832.73 690.23 828.9 688.88C828.711 688.508 828.577 688.11 828.5 687.7C828.32 685.83 824.35 679.7 824.35 679.7C824.35 679.7 818.88 670.89 818.88 670.15C818.88 669.41 811.34 657.97 811.34 657.97C811.34 657.97 808.44 651.68 806.53 648.27C806.75 647.67 806.97 646.91 807.2 646.01C809.2 638.13 811.2 620.14 810.77 617.7C810.2 614.7 809.77 611.52 812.65 607.21C815.53 602.9 815.3 595.98 815.3 595.98C815.3 595.98 815.11 574.8 817.18 570.5C819.25 566.2 825.1 531.73 824.92 530.97C824.74 530.21 826.42 525.5 826.42 525.5L826.77 511.91V511.08C826.77 511.08 828.09 499.28 829.77 496.65C830.122 495.839 830.299 494.964 830.29 494.08H861.42C861.42 492.2 861.35 490.33 861.3 488.46H861.42C861.319 475.35 860.317 462.262 858.42 449.29C861.34 445.75 864.87 443.29 864.98 442.53C865.478 440.225 866.17 437.967 867.05 435.78C868.31 431.99 866.8 424.5 866.8 424.5ZM803.97 717.63C803.97 717.63 804.77 717.15 806.07 716.48C806.15 716.8 806.23 717.14 806.31 717.48C807.15 721.1 808.16 726.12 807.93 728.48C807.54 732.41 806.93 738.6 806.93 738.6C805.872 740.836 805.07 743.184 804.54 745.6C803.94 743.13 803.35 741.18 803.35 741.18C803.35 741.18 790.51 732.58 790.51 728.26C790.423 726.093 790.129 723.94 789.63 721.83V721.83C789.52 721.29 789.4 720.77 789.28 720.26C789.838 720.939 790.315 721.68 790.7 722.47C790.7 722.47 794.53 713.18 795.45 709.47C795.617 709.016 795.672 708.529 795.61 708.05C795.33 706.79 795.252 705.494 795.38 704.21C796.28 705.21 796.97 706.21 796.74 706.93C796.22 708.64 803.97 717.63 803.97 717.63Z" fill="url(#paint0_linear)"/>
<path d="M805.01 756.85C801.85 756.48 789.01 759.08 781.55 759.08C774.09 759.08 770.55 754.44 770.38 751.26C770.21 748.08 760.89 746.99 759.21 746.06C758.47 745.64 758.28 743.06 758.29 740.26C758.29 736.69 758.65 732.65 758.65 731.71C758.65 730.77 759.03 727.39 759.38 724.42C759.68 721.85 759.96 719.62 759.96 719.62C768.71 709.01 788.64 716.82 788.64 716.82C788.64 716.82 789.49 719.77 790.18 723.07C790.671 725.168 790.962 727.307 791.05 729.46C791.05 733.75 803.72 742.31 803.72 742.31C804.578 745.214 805.279 748.161 805.82 751.14C806.33 754.29 806.42 757.02 805.01 756.85Z" fill="#53517C"/>
<path opacity="0.1" d="M805.01 756.84C801.85 756.48 789.01 759.08 781.56 759.08C774.11 759.08 770.56 754.43 770.39 751.26C770.22 748.09 760.89 746.98 759.21 746.05C758.47 745.64 758.28 743.05 758.29 740.26C761.85 741.34 766.81 743.11 768.53 744.94C771.32 747.94 772.06 751.26 773.93 751.64C775.8 752.02 777.65 754.64 786.58 752.38C792.16 750.98 800.4 750.97 805.82 751.16C806.33 754.29 806.42 757.01 805.01 756.84Z" fill="black"/>
<path d="M839.08 725.95C835.92 729.3 837.79 736.74 837.79 736.74C837.79 736.74 840.39 744.94 837.79 749.97C835.19 755 821.59 759.97 810.42 757.97C809.353 757.849 808.333 757.469 807.447 756.862C806.561 756.255 805.838 755.441 805.34 754.49C802.61 749.11 807.25 739.72 807.25 739.72C807.25 739.72 807.81 733.58 808.19 729.67C808.41 727.31 807.41 722.32 806.59 718.72C806.04 716.36 805.59 714.59 805.59 714.59C805.59 714.59 822.59 690.2 827.75 690.02C827.996 690.008 828.242 690.035 828.48 690.1C832.22 691.02 838.59 699.28 842.3 704.51C844.07 707.01 845.25 708.82 845.25 708.82C845.25 708.82 842.26 722.6 839.08 725.95Z" fill="#53517C"/>
<path opacity="0.1" d="M839.08 725.95C835.92 729.3 837.79 736.74 837.79 736.74C837.79 736.74 840.39 744.94 837.79 749.96C835.19 754.98 821.59 760.02 810.42 757.96C809.355 757.839 808.335 757.46 807.449 756.855C806.564 756.25 805.84 755.439 805.34 754.49C808.56 753.81 813.63 752.94 821.59 752.01C840.76 749.77 835.73 737.12 835.73 737.12C835.73 737.12 833.5 728.18 836.29 723.71C838.29 720.54 840.92 710.21 842.29 704.51C844.07 707 845.24 708.81 845.24 708.81C845.24 708.81 842.26 722.6 839.08 725.95Z" fill="black"/>
<path opacity="0.1" d="M790.18 723.07C787.51 719.42 779.61 712.39 763.68 726.13C762.122 725.945 760.64 725.355 759.38 724.42C759.68 721.85 759.96 719.62 759.96 719.62C768.71 709.01 788.64 716.82 788.64 716.82C788.64 716.82 789.49 719.77 790.18 723.07Z" fill="black"/>
<path d="M826.8 513.5V514.32L826.42 527.85C826.42 527.85 824.74 532.51 824.93 533.25C825.12 533.99 819.35 568.25 817.29 572.53C815.23 576.81 815.42 597.86 815.42 597.86C815.42 597.86 815.6 604.74 812.8 609.03C810 613.32 810.42 616.5 810.98 619.5C811.44 621.92 809.43 639.81 807.46 647.64C807.247 648.885 806.796 650.077 806.13 651.15C805.931 651.408 805.778 651.699 805.68 652.01C803 658.92 796.08 701.6 796.08 701.6C796.08 701.6 796.01 702.42 795.94 703.54C795.82 705.6 795.71 708.7 796.08 709.42C796.14 709.896 796.085 710.38 795.92 710.83C795.02 714.52 791.24 723.76 791.24 723.76C791.24 723.76 783.98 707.56 763.68 725.06C763.68 725.06 755.86 724.31 758.29 717.61C760.72 710.91 761.64 709.42 759.96 706.82C758.28 704.22 760.89 700.12 760.89 700.12C761.1 698.621 760.974 697.094 760.52 695.65C759.77 692.86 762.2 686.16 762.2 686.16L762.39 678.34L766.31 659.74L767.49 654.14L768.71 648.35L775.21 535.5L775.46 531.3L777.28 499.61L821.21 492.35L822.71 503.88L825.09 509.54L826.8 513.5Z" fill="#B3D7F7"/>
<path opacity="0.1" d="M806.01 511.78L779.1 529.5L780.1 545.01C780.1 545.01 782.89 569.96 782.89 572.56C782.89 575.16 781.58 596.39 781.58 596.39C781.58 596.39 788.29 606.39 787.58 608.87C786.87 611.35 793.34 618.17 793.34 618.17L804.42 639.37C804.42 639.37 806.29 646.29 807.42 647.59C807.207 648.835 806.756 650.027 806.09 651.1C803.86 653.33 796.04 701.55 796.04 701.55C796.04 701.55 795.97 702.37 795.9 703.49C795.33 702.98 794.9 702.67 794.9 702.67C794.9 702.67 789.5 693.73 789.5 692.81C789.5 691.89 783.73 684.43 783.73 684.43L770.57 659.3L767.49 654.09L768.71 648.3L777.28 499.56L821.21 492.3L822.71 503.83L782.71 514.02L806.01 511.78Z" fill="black"/>
<path opacity="0.1" d="M824.56 513.5L775.42 531.25L777.24 499.56L821.17 492.3L822.67 503.83L825.05 509.49C824.75 511.78 824.56 513.5 824.56 513.5Z" fill="black"/>
<path opacity="0.1" d="M796.08 709.37C796.14 709.846 796.085 710.33 795.92 710.78C795.23 709.63 794.81 708.69 794.92 708.26C795.48 706.58 790.45 702.67 790.45 702.67C790.45 702.67 785.06 693.73 785.06 692.81C785.06 691.89 779.28 684.43 779.28 684.43L766.28 659.69L767.46 654.09L768.68 648.3L775.21 535.5L775.6 545.03C775.6 545.03 778.42 569.93 778.42 572.5C778.42 575.07 777.12 596.33 777.12 596.33C777.12 596.33 783.82 606.33 783.12 608.81C782.42 611.29 788.89 618.11 788.89 618.11L800.06 639.34C800.06 639.34 802.06 646.98 803.23 647.72C804.243 649.012 805.09 650.427 805.75 651.93C803.07 658.84 796.15 701.52 796.15 701.52C796.15 701.52 796.08 702.34 796.01 703.46C795.82 705.55 795.71 708.65 796.08 709.37Z" fill="black"/>
<path opacity="0.1" d="M833.69 699.13C833.69 699.13 825.31 714.21 818.98 714.59C814.71 714.84 809.51 717.2 806.59 718.72C806.04 716.36 805.59 714.59 805.59 714.59C805.59 714.59 822.59 690.2 827.75 690.02C827.996 690.008 828.242 690.035 828.48 690.1C828.48 690.1 828.48 690.17 828.48 690.19C828.66 692.06 833.69 699.13 833.69 699.13Z" fill="black"/>
<path d="M833.69 698.01C833.69 698.01 825.31 713.09 818.98 713.47C812.65 713.85 804.28 718.87 804.28 718.87C804.28 718.87 796.64 709.93 797.19 708.26C797.74 706.59 792.73 702.67 792.73 702.67C792.73 702.67 787.33 693.73 787.33 692.81C787.33 691.89 781.55 684.43 781.55 684.43L768.34 659.3C768.34 659.3 746.19 622.05 745.63 619.82C745.29 618.473 744.576 617.249 743.57 616.29C737.25 611.07 737.43 600.09 737.06 599.53L730.92 590.22L730.36 574.58C730.36 574.58 726.82 566.02 727.01 563.41C727.2 560.8 725.14 554.29 725.14 553.35C725.14 552.41 722.91 533.44 722.73 532.69C722.55 531.94 721.79 527.85 721.79 527.85C721.79 527.85 721.98 505.51 720.5 503.64C719.68 502.64 719.42 497.37 719.36 492.79C719.3 488.96 719.36 485.59 719.36 485.59L829.01 474.23C829.01 474.23 829.69 480.48 830.08 486.74C830.43 492.33 830.55 497.95 829.76 499.18C828.08 501.79 826.76 513.52 826.76 513.52L777.24 531.39L777.79 544.98C777.79 544.98 780.59 569.93 780.59 572.53C780.59 575.13 779.28 596.36 779.28 596.36C779.28 596.36 785.98 606.36 785.28 608.84C784.58 611.32 791.04 618.14 791.04 618.14L802.21 639.37C802.21 639.37 804.27 647.01 805.38 647.75C806.49 648.49 811.54 659.5 811.54 659.5C811.54 659.5 818.98 670.87 818.98 671.61C818.98 672.35 824.38 681.11 824.38 681.11C824.38 681.11 828.29 687.25 828.47 689.11C828.65 690.97 833.69 698.01 833.69 698.01Z" fill="#B3D7F7"/>
<path opacity="0.1" d="M766.67 604.18C766.67 604.18 775.79 614.61 780.44 614.8C785.09 614.99 766.67 604.18 766.67 604.18Z" fill="black"/>
<path opacity="0.1" d="M801.48 706.58C801.48 706.58 829.03 692.43 825.48 698.95C821.93 705.47 811.89 708.95 811.89 708.95L801.48 706.58Z" fill="black"/>
<path opacity="0.1" d="M765.55 703.42C765.55 703.42 782.49 704.53 784.72 707.33C784.72 707.33 766.67 703.6 765.55 703.42Z" fill="black"/>
<path opacity="0.1" d="M765.73 709.19C765.73 709.19 781.19 709.75 786.21 711.98C786.21 711.98 769.83 711.42 765.73 709.19Z" fill="black"/>
<path d="M613.42 384.5L608.52 382.26L600.76 378.72C600.76 378.72 563.9 364.01 562.76 349.31C561.62 334.61 605.76 358.99 605.76 358.99C606.973 360.931 608.341 362.77 609.85 364.49C611.26 366.07 612.85 367.41 614.14 367.55C617.54 367.92 613.42 384.5 613.42 384.5Z" fill="#C37871"/>
<path d="M818.42 304.81L806.32 318.81L776.91 309.14L769.65 303.36L774.29 297.22C775.88 295.12 776.36 291.92 776.29 288.62C776.29 287.88 776.29 287.12 776.19 286.38C775.854 282.674 775.158 279.01 774.11 275.44C774.11 275.44 815.99 264.82 813.01 273.57C812.434 275.388 812.197 277.296 812.31 279.2C812.501 282.309 813.116 285.378 814.14 288.32C814.992 290.928 816.045 293.465 817.29 295.91L818.42 304.81Z" fill="#C37871"/>
<path opacity="0.1" d="M813.02 273.5C812.444 275.318 812.207 277.226 812.32 279.13C807.658 283.723 801.754 286.851 795.335 288.127C788.916 289.402 782.264 288.771 776.2 286.31C775.864 282.604 775.168 278.94 774.12 275.37C774.12 275.37 816 264.78 813.02 273.5Z" fill="black"/>
<path d="M822.33 254.17C822.33 254.97 822.33 255.77 822.24 256.56C821.722 263.834 818.846 270.741 814.047 276.232C809.248 281.723 802.788 285.499 795.649 286.987C788.51 288.474 781.08 287.592 774.487 284.474C767.895 281.356 762.5 276.172 759.12 269.71C757.595 266.807 756.513 263.693 755.91 260.47C755.499 258.395 755.295 256.285 755.3 254.17C755.301 252.33 755.455 250.494 755.76 248.68C757.119 240.481 761.477 233.079 767.987 227.914C774.498 222.748 782.697 220.187 790.99 220.728C799.283 221.269 807.08 224.873 812.864 230.841C818.648 236.809 822.008 244.714 822.29 253.02C822.32 253.4 822.33 253.79 822.33 254.17Z" fill="#C37871"/>
<path opacity="0.1" d="M818.42 304.81L806.32 318.81L776.91 309.14L769.65 303.36L774.29 297.22C775.88 295.12 776.36 291.92 776.29 288.62L777.63 298.89L777.95 299.21L779.87 301.13H782.29L786.95 307.46C786.95 307.46 793.65 302.07 794.21 303.36C794.77 304.65 803.89 301.13 803.89 301.13H804.24C812.5 300.78 813.94 288.48 813.94 288.48C813.94 288.48 814.07 288.37 814.14 288.33C814.992 290.938 816.045 293.475 817.29 295.92L818.42 304.81Z" fill="black"/>
<path opacity="0.1" d="M830.1 486.74C829.89 487.55 829.66 488.34 829.41 489.13C822.15 512.21 769.83 512.77 769.83 512.77L768.34 498.44L763.34 508.12C763.34 508.12 730.96 499.18 719.39 492.79C719.33 488.96 719.39 485.59 719.39 485.59L829.04 474.23C829.04 474.23 829.71 480.5 830.1 486.74Z" fill="black"/>
<path opacity="0.1" d="M613.42 384.5L608.52 382.26C609.65 376.94 609.85 366.38 609.88 364.49C611.29 366.07 612.88 367.41 614.17 367.55C617.54 367.92 613.42 384.5 613.42 384.5Z" fill="black"/>
<path d="M828.47 434.39C828.47 434.39 836.67 463.81 829.41 486.9C822.15 509.99 769.83 510.5 769.83 510.5L768.34 496.17L763.34 505.86C763.34 505.86 724.25 495.05 716.62 488.72C708.99 482.39 712.89 472.9 712.89 472.9C712.89 472.9 715.5 460.62 717.73 458C719.96 455.38 720.34 446.27 719.59 445C718.84 443.73 722.2 431.4 723.32 429.54C724.44 427.68 723.13 377.97 723.13 377.97C723.13 377.97 706.56 385.41 705.63 387.65C704.7 389.89 685.15 400.65 685.15 400.65C685.15 400.65 666.72 402.89 663.37 402.89C660.02 402.89 641.58 400.65 641.58 400.65C641.58 400.65 636.58 400.46 635.07 399.35C633.555 398.447 631.923 397.757 630.22 397.3C630.22 397.3 625.02 396.18 623.52 394.14C622.02 392.1 609.52 385.2 609.52 385.2C611.94 383.71 612.13 364.2 612.13 364.2L635.77 369.97C635.77 369.97 637.27 366.81 639.5 368.11C641.73 369.41 655.33 370.5 655.33 370.5C655.33 370.5 666.69 368.27 667.25 369.19C667.81 370.11 669.48 369.94 669.48 369.94C669.48 369.94 671.72 369.75 671.72 369.02C671.72 368.29 673.72 369.19 673.72 369.19L677.45 369.75C677.45 369.75 676.89 364.92 678.57 364.55C679.048 364.433 679.48 364.175 679.81 363.809C680.14 363.444 680.352 362.988 680.42 362.5C680.42 362.5 685.42 355.8 687.87 355.8C690.32 355.8 691.97 349.1 691.97 349.1L700.91 339.98C700.91 339.98 699.79 335.32 700.91 335.13C702.03 334.94 702.2 332.9 702.2 332.9C702.2 332.9 702.58 328.81 704.63 327.9C706.68 326.99 707.79 321.58 707.79 321.58C707.79 321.58 717.28 310.97 718.03 307.24C718.78 303.51 722.69 302.77 722.69 302.77C724.804 301.4 727.128 300.387 729.57 299.77C732.74 299.21 741.12 298.27 741.12 298.27C741.12 298.27 756.38 296.98 757.88 295.27C759.38 293.56 761.97 293.77 763.64 293.77C764.002 293.744 764.349 293.616 764.64 293.4C766.15 292.46 767.95 289.84 769.75 288.19C771.98 286.14 775.89 287.07 775.89 287.07L777.57 299.92L777.88 300.23L779.8 302.15H782.22L786.88 308.49C786.88 308.49 793.58 303.09 794.14 304.39C794.7 305.69 803.82 302.15 803.82 302.15H804.17C812.43 301.8 813.87 289.51 813.87 289.51C817.97 285.96 821.51 300.87 821.51 300.87L822.8 301.56C825.42 303.02 831.22 306.36 831.93 307.94C832.86 309.94 843.29 316.12 843.29 316.12L828.47 434.39Z" fill="#53517C"/>
<path d="M833.32 479.07L827.82 483.5L821.59 488.5C821.59 488.5 810.04 515.5 794.22 507.87C778.4 500.24 815.42 472 815.42 472L820.54 469.52L826.21 466.78L833.32 479.07Z" fill="#C37871"/>
<path opacity="0.1" d="M776.84 302.5C771.09 304.89 763.84 310.57 763.84 310.57L763.57 295.68C765.08 294.73 766.88 292.12 768.68 290.46C770.91 288.46 774.82 289.35 774.82 289.35L776.5 302.19L776.84 302.5Z" fill="black"/>
<path d="M777.96 300.28C772.21 302.67 764.96 308.35 764.96 308.35L764.72 293.5C766.23 292.56 768.03 289.94 769.83 288.29C772.06 286.24 775.97 287.17 775.97 287.17L777.65 300.02L777.96 300.28Z" fill="#E6EAED"/>
<path opacity="0.1" d="M822.88 304.95C820.02 312.61 816.46 321.09 815.82 317.84C815.05 313.99 808.34 308.55 804.25 305.54C812.51 305.2 813.95 292.9 813.95 292.9C818.05 289.36 821.59 304.26 821.59 304.26L822.88 304.95Z" fill="black"/>
<path d="M822.88 301.6C820.02 309.26 816.46 317.74 815.82 314.49C815.05 310.64 808.34 305.2 804.25 302.19C812.51 301.84 813.95 289.55 813.95 289.55C818.05 286 821.59 300.91 821.59 300.91L822.88 301.6Z" fill="#E6EAED"/>
<path opacity="0.1" d="M784.91 595.62C784.91 595.62 806.13 592.62 805.2 597.11C804.27 601.6 784.91 595.62 784.91 595.62Z" fill="black"/>
<path opacity="0.1" d="M750.65 522.5C750.65 522.5 759.03 518.03 766.48 519.9L750.65 522.5Z" fill="black"/>
<path opacity="0.1" d="M737.06 510.35C737.06 510.35 750.47 508.3 755.49 510.54L737.06 510.35Z" fill="black"/>
<path opacity="0.1" d="M795.71 541.07C795.71 541.07 783.98 553.54 784.71 556.89L795.71 541.07Z" fill="black"/>
<path opacity="0.1" d="M681.21 373.7C681.21 373.7 679.35 380.4 690.71 383.19L681.21 373.7Z" fill="black"/>
<path opacity="0.1" d="M677.86 385.24C677.86 385.24 691.86 397.71 685.31 398.09C678.76 398.47 677.86 385.24 677.86 385.24Z" fill="black"/>
<path opacity="0.1" d="M708.95 335.16C708.95 335.16 726.08 347.07 724.95 349.87C723.82 352.67 708.95 335.16 708.95 335.16Z" fill="black"/>
<path opacity="0.1" d="M833.32 479.07L827.82 483.5C826.67 479.56 824.29 472.96 820.57 469.5L826.24 466.76L833.32 479.07Z" fill="black"/>
<path d="M835.92 320.82L843.37 316.17C843.37 316.17 851.93 317.47 853.05 335.17C854.17 352.87 861.99 388.23 861.99 388.23L866.27 427.5C866.27 427.5 867.76 434.95 866.46 438.67C865.603 440.842 864.934 443.084 864.46 445.37C864.27 446.68 854.03 453.01 854.22 461.2C854.41 469.39 841.22 477.02 841.22 477.02C841.22 477.02 832.65 482.02 829.86 485.59C829.86 485.59 826.69 470.69 819.81 466.97C812.93 463.25 834.33 433.65 834.33 433.65L835.92 320.82Z" fill="#53517C"/>
<path opacity="0.1" d="M823.04 434.15C823.04 434.15 800.7 443.46 802.56 446.44C804.42 449.42 823.04 434.15 823.04 434.15Z" fill="black"/>
<path opacity="0.1" d="M823.04 446.06C823.04 446.06 813.75 450.17 814.52 451.48C815.29 452.79 823.04 446.06 823.04 446.06Z" fill="black"/>
<path opacity="0.1" d="M817.83 453.88C817.83 453.88 808.54 457.99 809.31 459.3C810.08 460.61 817.83 453.88 817.83 453.88Z" fill="black"/>
<path d="M577.1 214.58V496.58H860.93C859.64 340.83 733.13 214.9 577.1 214.58Z" fill="#6C63FF"/>
<path opacity="0.1" d="M577.1 214.58V496.58H860.93C859.64 340.83 733.13 214.9 577.1 214.58Z" fill="black"/>
<path d="M577.1 209V491H860.93C859.64 335.24 733.13 209.31 577.1 209Z" fill="#6C63FF"/>
<path d="M795.76 498.89C795.735 497.347 796.197 495.835 797.08 494.57C797.966 493.708 799.062 493.094 800.26 492.79C801.32 492.44 802.39 492.11 803.46 491.79C804.292 491.512 805.163 491.37 806.04 491.37C807.82 491.44 809.36 492.54 810.79 493.59C811.072 493.766 811.306 494.01 811.47 494.3C811.79 495.04 811.1 495.81 810.47 496.3C808.267 498.26 805.887 500.01 803.36 501.53C801.58 502.53 799.22 503.66 797.13 503.68C794.56 503.75 795.59 500.75 795.76 498.89Z" fill="#C37871"/>
<path opacity="0.1" d="M822.33 254.17C822.33 254.97 822.33 255.77 822.24 256.56C822.098 256.655 821.951 256.741 821.8 256.82C821.234 257.025 820.682 257.268 820.15 257.55C818.52 258.66 818.89 261.08 819.04 263.04C819.273 265.877 818.683 268.72 817.34 271.23C816.7 271.164 816.1 270.889 815.632 270.448C815.164 270.007 814.854 269.425 814.75 268.79C814.572 267.522 814.518 266.239 814.59 264.96C814.43 261.54 812.59 258.49 811.39 255.27C809.17 249.1 809.66 242.27 808.18 235.9C807.75 234.02 807.05 232.02 805.45 230.9C803.33 229.44 800.39 230.08 798.11 231.27C795.83 232.46 793.79 234.2 791.32 234.95C787.51 236.1 783.46 234.71 779.67 233.53C775.88 232.35 771.59 231.35 768.05 233.16C764.33 235.07 762.66 239.42 761.52 243.46C761.146 244.567 760.966 245.731 760.99 246.9C761.06 247.9 761.45 248.95 761.42 250C761.42 252.24 759.51 254 758.77 256.12C758.31 257.43 758.42 260.66 756.52 260.64C756.303 260.632 756.093 260.567 755.91 260.45C755.499 258.375 755.295 256.265 755.3 254.15C755.301 252.31 755.455 250.474 755.76 248.66C757.119 240.461 761.477 233.059 767.987 227.894C774.498 222.728 782.697 220.167 790.99 220.708C799.283 221.249 807.08 224.853 812.864 230.821C818.648 236.789 822.008 244.694 822.29 253C822.32 253.4 822.33 253.79 822.33 254.17Z" fill="black"/>
<path d="M746.97 245.8C746.85 242.57 749.3 239.55 748.74 236.37C748.3 233.88 746.14 232.07 745.09 229.77C744.485 228.388 744.284 226.863 744.509 225.372C744.733 223.88 745.375 222.482 746.36 221.34C747.18 220.42 748.21 219.7 749 218.76C750.57 216.88 751 214.35 751.75 212.01C752.5 209.67 753.75 207.22 756.08 206.42C758.59 205.56 761.53 206.96 763.95 205.87C764.244 205.762 764.509 205.586 764.722 205.357C764.936 205.127 765.093 204.851 765.18 204.55C765.201 204.103 765.157 203.655 765.05 203.22C764.88 201.44 766.57 200.05 768.19 199.27C775.59 195.7 784.33 197.4 792.35 199.17C792.216 197.542 792.334 195.902 792.7 194.31C797.76 194.87 803.21 195.61 806.87 199.13C809.14 201.32 810.41 204.3 811.87 207.06C813.33 209.82 815.33 212.59 818.26 213.74C819.218 213.972 820.117 214.401 820.9 215C821.341 215.489 821.68 216.06 821.9 216.68L823.82 221.41C824.019 221.987 824.317 222.525 824.7 223C825.211 223.467 825.778 223.867 826.39 224.19C830.11 226.62 830.66 231.97 829.5 236.27C828.34 240.57 825.92 244.46 825 248.82C824.46 251.39 824.15 254.53 821.8 255.7C821.234 255.91 820.683 256.157 820.15 256.44C818.52 257.54 818.88 259.96 819.04 261.92C819.274 264.756 818.687 267.599 817.35 270.11C816.71 270.045 816.109 269.771 815.64 269.33C815.172 268.889 814.863 268.305 814.76 267.67C814.578 266.402 814.521 265.119 814.59 263.84C814.43 260.42 812.59 257.37 811.39 254.15C809.17 247.98 809.66 241.15 808.19 234.78C807.75 232.89 807.04 230.9 805.44 229.78C803.32 228.31 800.38 228.94 798.1 230.15C795.82 231.36 793.79 233.07 791.32 233.82C787.51 234.96 783.46 233.59 779.66 232.39C775.86 231.19 771.59 230.22 768.05 232.03C764.33 233.94 762.67 238.3 761.53 242.33C761.15 243.436 760.964 244.6 760.98 245.77C761.06 246.77 761.44 247.83 761.42 248.87C761.42 251.12 759.51 252.87 758.77 255C758.31 256.31 758.42 259.53 756.52 259.52C755.08 259.52 753.62 256.26 752.91 255.31C750.74 252.42 747.12 249.75 746.97 245.8Z" fill="#4B3E3C"/>
<g opacity="0.1">
<path opacity="0.1" d="M748.74 234.13C748.3 231.64 746.14 229.84 745.09 227.54C744.795 226.885 744.597 226.191 744.5 225.48C744.287 226.937 744.492 228.424 745.09 229.77C746.09 232.05 748.24 233.84 748.72 236.28C748.847 235.569 748.853 234.843 748.74 234.13V234.13Z" fill="black"/>
<path opacity="0.1" d="M765.18 202.31C765.185 202.257 765.185 202.203 765.18 202.15C765.125 202.302 765.085 202.46 765.06 202.62C765.115 202.523 765.155 202.419 765.18 202.31V202.31Z" fill="black"/>
<path opacity="0.1" d="M792.35 196.94C792.345 196.863 792.345 196.787 792.35 196.71C792.35 196.78 792.35 196.86 792.35 196.93V196.94Z" fill="black"/>
<path opacity="0.1" d="M829.5 234.03C828.35 238.33 825.92 242.23 825 246.58C824.46 249.16 824.15 252.29 821.8 253.47C821.236 253.681 820.685 253.924 820.15 254.2C818.8 255.12 818.82 256.94 818.96 258.66C818.98 258.225 819.097 257.799 819.303 257.415C819.509 257.031 819.798 256.698 820.15 256.44C820.683 256.157 821.234 255.91 821.8 255.7C824.15 254.53 824.46 251.39 825 248.82C825.92 244.46 828.35 240.57 829.5 236.27C829.962 234.588 830.131 232.839 830 231.1C829.926 232.09 829.759 233.071 829.5 234.03V234.03Z" fill="black"/>
<path opacity="0.1" d="M817.35 267.88C816.71 267.816 816.109 267.541 815.64 267.1C815.172 266.659 814.863 266.075 814.76 265.44C814.578 264.169 814.521 262.882 814.59 261.6C814.43 258.19 812.59 255.13 811.39 251.92C809.17 245.75 809.66 238.92 808.19 232.55C807.75 230.66 807.04 228.67 805.44 227.55C803.32 226.09 800.38 226.72 798.1 227.92C795.82 229.12 793.79 230.85 791.32 231.59C787.51 232.74 783.46 231.36 779.66 230.17C775.86 228.98 771.59 227.99 768.05 229.81C764.33 231.72 762.67 236.08 761.53 240.1C761.15 241.21 760.964 242.377 760.98 243.55C760.98 243.78 761.04 244.02 761.08 244.25C761.189 243.604 761.339 242.966 761.53 242.34C762.67 238.34 764.33 233.95 768.05 232.04C771.59 230.23 775.87 231.21 779.66 232.4C783.45 233.59 787.51 234.97 791.32 233.83C793.79 233.08 795.82 231.36 798.1 230.16C800.38 228.96 803.32 228.32 805.44 229.79C807.04 230.88 807.75 232.87 808.19 234.79C809.66 241.18 809.19 247.99 811.39 254.16C812.54 257.38 814.39 260.43 814.59 263.85C814.521 265.129 814.578 266.412 814.76 267.68C814.863 268.315 815.172 268.899 815.64 269.34C816.109 269.781 816.71 270.056 817.35 270.12C818.675 267.629 819.265 264.813 819.05 262C818.893 264.056 818.315 266.058 817.35 267.88V267.88Z" fill="black"/>
<path opacity="0.1" d="M758.77 252.79C758.31 254.1 758.42 257.32 756.52 257.31C755.08 257.31 753.62 254.06 752.91 253.11C750.91 250.4 747.65 247.91 747.06 244.42C746.985 244.876 746.955 245.338 746.97 245.8C747.12 249.75 750.74 252.42 752.91 255.34C753.62 256.34 755.08 259.54 756.52 259.55C758.42 259.55 758.31 256.34 758.77 255.03C759.51 252.91 761.37 251.15 761.42 248.9C761.418 248.47 761.372 248.041 761.28 247.62C760.85 249.43 759.42 250.98 758.77 252.79Z" fill="black"/>
</g>
<path d="M103.11 446.6H99.75V450.02H103.11V446.6Z" fill="#6C63FF"/>
<path opacity="0.25" d="M103.11 446.6H99.75V450.02H103.11V446.6Z" fill="black"/>
<path d="M387.73 164.94H384.45V168.75H387.73V164.94Z" fill="#6C63FF"/>
<path opacity="0.25" d="M387.73 164.94H384.45V168.75H387.73V164.94Z" fill="black"/>
<path opacity="0.2" d="M387.76 450.03V168.03H387.17C230.86 168.03 104.02 294.11 102.75 450.12L387.76 450.03Z" fill="white"/>
<path d="M387.76 450.03V168.03H387.17C230.86 168.03 104.02 294.11 102.75 450.12L387.76 450.03Z" fill="#6C63FF"/>
<path opacity="0.25" d="M387.76 450.03V168.03H387.17C230.86 168.03 104.02 294.11 102.75 450.12L387.76 450.03Z" fill="black"/>
<path d="M384.76 447.03V165.03H384.17C227.86 165.03 101.02 291.11 99.75 447.12L384.76 447.03Z" fill="#6C63FF"/>
<path opacity="0.15" d="M384.76 447.03V165.03H384.17C227.86 165.03 101.02 291.11 99.75 447.12L384.76 447.03Z" fill="black"/>
<path d="M594.55 677.37L598.74 680V685L593.05 684.12L594.55 677.37Z" fill="#6C63FF"/>
<path opacity="0.1" d="M594.55 677.37L598.74 680V685L593.05 684.12L594.55 677.37Z" fill="black"/>
<path d="M194.92 679.37L193.35 679.84V684.84L198.67 683.68L197.36 678.81L194.92 679.37Z" fill="#6C63FF"/>
<path opacity="0.1" d="M194.92 679.37L193.35 679.84V684.84L198.67 683.68L197.36 678.81L194.92 679.37Z" fill="black"/>
<path d="M399.69 485.96L193.35 684.84C219.803 711.741 251.344 733.11 286.137 747.701C320.93 762.292 358.278 769.814 396.006 769.829C433.735 769.844 471.089 762.351 505.893 747.787C540.697 733.224 572.256 711.88 598.73 685L399.69 485.96Z" fill="#6C63FF"/>
<path d="M399.69 480.96L193.35 679.84C219.803 706.741 251.344 728.11 286.137 742.701C320.93 757.292 358.278 764.814 396.006 764.829C433.735 764.844 471.089 757.351 505.893 742.787C540.697 728.224 572.256 706.88 598.73 680L399.69 480.96Z" fill="#6C63FF"/>
<path opacity="0.1" d="M399.69 480.96L193.35 679.84C219.803 706.741 251.344 728.11 286.137 742.701C320.93 757.292 358.278 764.814 396.006 764.829C433.735 764.844 471.089 757.351 505.893 742.787C540.697 728.224 572.256 706.88 598.73 680L399.69 480.96Z" fill="black"/>
<path d="M399.69 485.96L193.35 684.84C219.803 711.741 251.344 733.11 286.137 747.701C320.93 762.292 358.278 769.814 396.006 769.829C433.735 769.844 471.089 762.351 505.893 747.787C540.697 733.224 572.256 711.88 598.73 685L399.69 485.96Z" fill="#6C63FF"/>
<path d="M382.99 475.06L389.86 470.36L390.86 472.36L383.02 478.09L382.99 475.06Z" fill="#3ACC6C"/>
<path opacity="0.1" d="M382.99 475.06L389.86 470.36L390.86 472.36L383.02 478.09L382.99 475.06Z" fill="black"/>
<path d="M378.11 468.03L385.36 465.36L386.36 467.36L373.99 471.53L378.11 468.03Z" fill="#FF748E"/>
<path opacity="0.1" d="M378.11 468.03L385.36 465.36L386.36 467.36L373.99 471.53L378.11 468.03Z" fill="black"/>
<path d="M377.2 459.28L384.86 458.86V460.86L371.99 462.21L373.14 459.62L377.2 459.28Z" fill="#5E5A6B"/>
<path opacity="0.1" d="M377.2 459.28L384.86 458.86V460.86L371.99 462.21L373.14 459.62L377.2 459.28Z" fill="black"/>
<path d="M384.86 458.86L107.51 522.02C103.172 502.061 100.99 481.695 101 461.27C101 460.46 101 459.66 101 458.86H384.86Z" fill="#5E5A6B"/>
<path opacity="0.1" d="M384.86 458.86L107.51 522.02C103.172 502.061 100.99 481.695 101 461.27C101 460.46 101 459.66 101 458.86H384.86Z" fill="black"/>
<path d="M384.86 460.86L107.51 524.02C103.172 504.061 100.99 483.695 101 463.27C101 462.46 101 461.66 101 460.86H384.86Z" fill="#5E5A6B"/>
<path d="M108.01 528.5C113.853 555.364 123.596 581.228 136.93 605.27L385.36 465.36L108.01 528.5Z" fill="#FF748E"/>
<path opacity="0.1" d="M108.01 528.5C113.853 555.364 123.596 581.228 136.93 605.27L385.36 465.36L108.01 528.5Z" fill="black"/>
<path d="M109.01 530.5C114.853 557.364 124.596 583.228 137.93 607.27L386.36 467.36L109.01 530.5Z" fill="#FF748E"/>
<path d="M389.31 470.38L141.31 610.07L141.43 610.29C153.99 633.007 169.602 653.898 187.83 672.38L389.83 470.38H389.31Z" fill="#3ACC6C"/>
<path opacity="0.1" d="M389.31 470.38L141.31 610.07L141.43 610.29C153.99 633.007 169.602 653.898 187.83 672.38L389.83 470.38H389.31Z" fill="black"/>
<path d="M390.31 472.38L142.31 612.07L142.43 612.29C154.99 635.007 170.602 655.898 188.83 674.38L390.83 472.38H390.31Z" fill="#3ACC6C"/>
<defs>
<linearGradient id="paint0_linear" x1="713.37" y1="758.09" x2="713.37" y2="189.88" gradientUnits="userSpaceOnUse">
<stop stop-color="#808080" stop-opacity="0.25"/>
<stop offset="0.54" stop-color="#808080" stop-opacity="0.12"/>
<stop offset="1" stop-color="#808080" stop-opacity="0.1"/>
</linearGradient>
</defs>
</svg>
