<svg width="884" height="695" viewBox="0 0 884 695" fill="none" xmlns="http://www.w3.org/2000/svg">
<rect width="884" height="695" fill="white"/>
<path d="M530 41H344V85H530V41Z" fill="#6C63FF"/>
<path d="M435 0C429.858 0 424.831 1.52487 420.555 4.38179C416.279 7.23871 412.947 11.2994 410.979 16.0502C409.011 20.8011 408.496 26.0288 409.5 31.0723C410.503 36.1159 412.979 40.7486 416.615 44.3848C420.251 48.0209 424.884 50.4972 429.928 51.5004C434.971 52.5036 440.199 51.9887 444.95 50.0209C449.701 48.053 453.761 44.7205 456.618 40.4448C459.475 36.1691 461 31.1423 461 26C461 19.1044 458.261 12.4912 453.385 7.61522C448.509 2.73928 441.896 0 435 0V0ZM435 41C432.033 41 429.133 40.1203 426.666 38.472C424.2 36.8238 422.277 34.4811 421.142 31.7402C420.006 28.9994 419.709 25.9834 420.288 23.0736C420.867 20.1639 422.296 17.4912 424.393 15.3934C426.491 13.2956 429.164 11.867 432.074 11.2882C434.983 10.7094 437.999 11.0065 440.74 12.1418C443.481 13.2771 445.824 15.1997 447.472 17.6664C449.12 20.1332 450 23.0333 450 26C450 29.9782 448.42 33.7936 445.607 36.6066C442.794 39.4197 438.978 41 435 41Z" fill="#6C63FF"/>
<rect y="83" width="884" height="612" fill="white"/>
<rect x="0.5" y="83.5" width="883" height="611" stroke="black" stroke-opacity="0.25"/>
<path d="M162 171H66V259H162V171Z" fill="url(#paint0_linear)"/>
<path d="M162 346H66V434H162V346Z" fill="url(#paint1_linear)"/>
<path d="M163 518H67V606H163V518Z" fill="url(#paint2_linear)"/>
<path d="M159 174H70V256H159V174Z" fill="#69F0AE"/>
<path d="M159 347H70V429H159V347Z" fill="#6C63FF"/>
<path d="M159 520H70V602H159V520Z" fill="#6C63FF"/>
<path d="M619 199H311V208H619V199Z" fill="#E0E0E0"/>
<path d="M819 212H311V219H819V212Z" fill="#E0E0E0"/>
<path d="M783 224H311V231H783V224Z" fill="#E0E0E0"/>
<path d="M619 375H311V383H619V375Z" fill="#E0E0E0"/>
<path d="M819 387H311V394H819V387Z" fill="#E0E0E0"/>
<path d="M783 399H311V406H783V399Z" fill="#E0E0E0"/>
<path d="M619 550H311V558H619V550Z" fill="#E0E0E0"/>
<path d="M819 562H311V569H819V562Z" fill="#E0E0E0"/>
<path d="M783 574H311V581H783V574Z" fill="#E0E0E0"/>
<path d="M93.75 210.189L109.95 223.714L132.9 193L141 199.143L109.95 236L87 212.657L93.75 210.189Z" fill="url(#paint3_linear)"/>
<path d="M96.75 210.8L110.55 222.429L130.1 196L137 201.286L110.55 233L91 212.914L96.75 210.8Z" fill="white"/>
<path d="M96.75 384.8L110.55 396.429L130.1 370L137 375.286L110.55 407L91 386.914L96.75 384.8Z" fill="white"/>
<path d="M96.75 558.8L110.55 570.429L130.1 544L137 549.286L110.55 581L91 560.914L96.75 558.8Z" fill="white"/>
<defs>
<linearGradient id="paint0_linear" x1="29682" y1="20147" x2="29682" y2="12931" gradientUnits="userSpaceOnUse">
<stop stop-color="#808080" stop-opacity="0.25"/>
<stop offset="0.54" stop-color="#808080" stop-opacity="0.12"/>
<stop offset="1" stop-color="#808080" stop-opacity="0.1"/>
</linearGradient>
<linearGradient id="paint1_linear" x1="29708.9" y1="34622" x2="29708.9" y2="27406" gradientUnits="userSpaceOnUse">
<stop stop-color="#808080" stop-opacity="0.25"/>
<stop offset="0.54" stop-color="#808080" stop-opacity="0.12"/>
<stop offset="1" stop-color="#808080" stop-opacity="0.1"/>
</linearGradient>
<linearGradient id="paint2_linear" x1="29736.8" y1="48918" x2="29736.8" y2="41702" gradientUnits="userSpaceOnUse">
<stop stop-color="#808080" stop-opacity="0.25"/>
<stop offset="0.54" stop-color="#808080" stop-opacity="0.12"/>
<stop offset="1" stop-color="#808080" stop-opacity="0.1"/>
</linearGradient>
<linearGradient id="paint3_linear" x1="16746" y1="9035.09" x2="16746" y2="7303.91" gradientUnits="userSpaceOnUse">
<stop stop-color="#808080" stop-opacity="0.25"/>
<stop offset="0.54" stop-color="#808080" stop-opacity="0.12"/>
<stop offset="1" stop-color="#808080" stop-opacity="0.1"/>
</linearGradient>
</defs>
</svg>
